<svg height="512pt" viewBox="-57 0 512 512" width="512pt" xmlns="http://www.w3.org/2000/svg"><path d="m289.101562 440.800781c-27.570312 11.714844-57.871093 18.199219-89.664062 18.199219-31.789062 0-62.09375-6.484375-89.660156-18.199219l-7.773438 41.199219h-28.566406v30h252v-30h-28.566406zm0 0"/><path d="m254.4375 41.214844v-41.214844h-110v41.214844l55 55zm0 0"/><path d="m199.4375 214c-8.269531 0-15 6.730469-15 15s6.730469 15 15 15c8.273438 0 15-6.730469 15-15s-6.726562-15-15-15zm0 0"/><path d="m199.4375 184c2.808594 0 5.554688.269531 8.21875.765625l74.191406-128.535156-82.410156 82.410156-21.210938-21.214844-55-55-6.253906-6.25 74.25 128.589844c2.664063-.496094 5.410156-.765625 8.214844-.765625zm0 0"/><path d="m241.859375 214h157.019531c-4.644531-62.316406-37.96875-116.761719-86.78125-150.164062l-78.472656 135.949218c3.558594 4.15625 6.371094 8.960938 8.234375 14.214844zm0 0"/><path d="m199.4375 274c-2.804688 0-5.550781-.269531-8.214844-.765625l-78.515625 135.960937c26.25 12.6875 55.675781 19.804688 86.730469 19.804688 31.039062 0 60.449219-7.109375 86.691406-19.78125l-78.472656-135.984375c-2.664062.496094-5.410156.765625-8.21875.765625zm0 0"/><path d="m233.625 258.214844 78.457031 135.960937c48.820313-33.402343 82.152344-87.855469 86.796875-150.175781h-157.019531c-1.863281 5.253906-4.675781 10.058594-8.234375 14.214844zm0 0"/><path d="m165.253906 258.214844c-3.558594-4.15625-6.371094-8.960938-8.234375-14.214844h-157.019531c4.640625 62.304688 37.957031 116.742188 86.757812 150.144531zm0 0"/><path d="m165.253906 199.785156-78.488281-135.9375c-48.804687 33.402344-82.125 87.84375-86.765625 150.152344h157.019531c1.863281-5.253906 4.675781-10.058594 8.234375-14.214844zm0 0"/></svg>